<?xml version="1.0" standalone="no"?>
<!DOCTYPE svg PUBLIC "-//W3C//DTD SVG 20010904//EN"
 "http://www.w3.org/TR/2001/REC-SVG-20010904/DTD/svg10.dtd">
<svg version="1.0" xmlns="http://www.w3.org/2000/svg"
 width="500.000000pt" height="500.000000pt" viewBox="0 0 500.000000 500.000000"
 preserveAspectRatio="xMidYMid meet">

<g transform="translate(0.000000,500.000000) scale(0.100000,-0.100000)"
fill="#000000" stroke="none">
<path d="M1998 2363 l-48 -14 0 -65 0 -64 -45 0 -45 0 0 -44 0 -45 43 -3 42
-3 5 -185 c6 -208 12 -229 75 -256 35 -14 113 -18 153 -8 19 6 22 13 22 55 0
47 -1 48 -24 39 -34 -13 -79 2 -93 31 -9 17 -12 69 -10 174 l2 150 63 3 62 3
0 44 0 45 -65 0 -65 0 0 80 c0 89 3 86 -72 63z"/>
<path d="M1590 2229 c-129 -20 -195 -96 -169 -193 15 -54 54 -88 149 -126 109
-44 133 -78 85 -125 -20 -21 -34 -25 -82 -25 -36 0 -75 8 -102 20 -24 11 -47
20 -53 20 -5 0 -8 -23 -6 -52 3 -49 5 -52 38 -64 44 -16 177 -18 221 -3 110
37 160 140 106 220 -28 42 -72 72 -145 99 -32 12 -65 29 -74 37 -25 23 -23 68
4 87 29 20 127 21 173 2 l35 -15 0 50 c0 42 -3 51 -22 58 -36 13 -109 18 -158
10z"/>
<path d="M2503 2229 c-149 -19 -233 -121 -233 -285 0 -110 43 -191 127 -241
60 -35 175 -44 252 -18 69 23 133 86 156 154 22 68 17 209 -9 261 -52 100
-156 146 -293 129z m107 -105 c53 -22 81 -68 87 -148 6 -74 -9 -129 -45 -169
-76 -81 -221 -40 -252 71 -46 168 68 303 210 246z"/>
<path d="M3520 2229 c-106 -20 -192 -114 -206 -226 -16 -134 25 -245 110 -298
43 -26 60 -30 135 -33 69 -3 97 0 144 18 l57 21 0 50 0 49 -42 -22 c-60 -31
-174 -32 -214 -2 -40 30 -64 65 -67 99 l-2 30 183 3 182 2 0 53 c0 73 -25 150
-61 191 -46 53 -137 80 -219 65z m116 -106 c27 -17 47 -63 42 -95 -3 -22 -6
-23 -112 -26 -61 -1 -115 -1 -122 2 -19 7 0 64 33 98 43 45 109 54 159 21z"/>
<path d="M3118 2179 l-48 -51 0 46 0 46 -60 0 -60 0 0 -270 0 -270 59 0 59 0
4 168 c4 182 11 209 65 252 22 17 38 21 75 18 l48 -3 0 58 0 57 -47 0 c-44 0
-50 -4 -95 -51z"/>
</g>
</svg>
